<?xml version="1.0" encoding="UTF-8"?>
<svg id="Layer_1" data-name="Layer 1" xmlns="http://www.w3.org/2000/svg" viewBox="0 0 10.5 7.61">
  <defs>
    <style>
      .cls-1 {
        fill: #d3d3d3;
      }
    </style>
  </defs>
  <path class="cls-1" d="m10.5,3.77s0-.06,0-.09c0-.09,0-.2,0-.32,0-.33-.03-.65-.05-.96-.04-.42-.09-.78-.16-1.04-.15-.56-.59-1-1.15-1.15-.33-.09-.98-.14-1.89-.18-.43-.02-.9-.03-1.37-.03-.16,0-.31,0-.45,0h-.34c-.14,0-.29,0-.45,0-.47,0-.93.02-1.37.03-.91.04-1.56.09-1.89.18C.81.37.37.81.22,1.37c-.07.26-.12.62-.16,1.04-.03.31-.04.63-.05.96,0,.11,0,.22,0,.32,0,.03,0,.06,0,.09v.07s0,.06,0,.09c0,.09,0,.2,0,.32,0,.33.03.65.05.96.04.42.09.78.16,1.04.15.56.59,1,1.15,1.15.33.09.98.14,1.89.18.43.02.9.03,1.37.03.16,0,.31,0,.45,0h.34c.14,0,.29,0,.45,0,.47,0,.93-.02,1.37-.03.91-.04,1.56-.09,1.89-.18.56-.15,1-.59,1.15-1.15.07-.26.12-.62.16-1.04.03-.31.04-.63.05-.96,0-.11,0-.22,0-.32,0-.03,0-.06,0-.09,0,0,0-.07,0-.07Zm-.84.06s0,.05,0,.08c0,.09,0,.19,0,.3,0,.31-.02.62-.05.91-.03.38-.08.69-.13.89-.07.27-.29.49-.56.56-.25.07-.87.12-1.71.15-.43.02-.89.03-1.34.03-.16,0-.31,0-.44,0h-.78c-.46,0-.92-.02-1.34-.04-.84-.03-1.46-.08-1.71-.15-.27-.07-.48-.29-.56-.56-.06-.21-.1-.52-.13-.89-.02-.29-.04-.6-.05-.91,0-.11,0-.21,0-.3,0-.03,0-.06,0-.08v-.06s0-.05,0-.08c0-.09,0-.19,0-.3,0-.31.02-.62.05-.91.03-.38.08-.69.13-.89.07-.27.29-.49.56-.56.25-.07.87-.12,1.71-.15.43-.02.89-.03,1.34-.03.16,0,.31,0,.44,0h.78c.46,0,.92.02,1.34.04.84.03,1.46.08,1.71.15.27.07.48.29.56.56.06.21.1.52.13.89.02.29.04.6.05.91,0,.11,0,.21,0,.3,0,.03,0,.06,0,.08v.06Zm-5.45,1.54l2.72-1.58-2.72-1.56v3.14Z"/>
</svg>