<?xml version="1.0" encoding="UTF-8"?>
<svg id="Layer_1" data-name="Layer 1" xmlns="http://www.w3.org/2000/svg" viewBox="0 0 11 9">
  <defs>
    <style>
      .cls-1, .cls-2 {
        fill: #d3d3d3;
      }

      .cls-2 {
        fill-rule: evenodd;
      }
    </style>
  </defs>
  <path class="cls-2" d="m6.5,2c-.28,0-.5.22-.5.5v4c0,.28.22.5.5.5h2c.28,0,.5-.22.5-.5V2.5c0-.28-.22-.5-.5-.5h-2Zm1.5,1h-1v3h1v-3Z"/>
  <path class="cls-1" d="m2.5,2c-.28,0-.5.22-.5.5s.22.5.5.5h2c.28,0,.5-.22.5-.5s-.22-.5-.5-.5h-2Zm0,2c-.28,0-.5.22-.5.5s.22.5.5.5h2c.28,0,.5-.22.5-.5s-.22-.5-.5-.5h-2Zm-.5,2.5c0-.28.22-.5.5-.5h2c.28,0,.5.22.5.5s-.22.5-.5.5h-2c-.28,0-.5-.22-.5-.5Z"/>
  <path class="cls-2" d="m1.5,0C.67,0,0,.67,0,1.5v6c0,.83.67,1.5,1.5,1.5h8c.83,0,1.5-.67,1.5-1.5V1.5c0-.83-.67-1.5-1.5-1.5H1.5Zm8,1H1.5c-.28,0-.5.22-.5.5v6c0,.28.22.5.5.5h8c.28,0,.5-.22.5-.5V1.5c0-.28-.22-.5-.5-.5Z"/>
</svg>