<?xml version="1.0" encoding="UTF-8"?>
<svg id="Layer_1" data-name="Layer 1" xmlns="http://www.w3.org/2000/svg" viewBox="0 0 12 12">
  <defs>
    <style>
      .cls-1 {
        fill: none;
      }

      .cls-2 {
        fill: gray;
      }
    </style>
  </defs>
  <path class="cls-1" d="m0,0h12v12H0V0Z"/>
  <path class="cls-2" d="m9.8,3.5c-.04-.15-.15-.26-.27-.3-.22-.06-1.28-.2-3.53-.2s-3.31.14-3.53.2c-.12.03-.23.15-.27.3-.05.21-.2,1.1-.2,2.5s.14,2.29.2,2.5c.04.15.15.26.27.3.22.06,1.28.2,3.53.2s3.31-.14,3.53-.2c.12-.03.23-.15.27-.3.05-.21.2-1.1.2-2.5s-.14-2.29-.2-2.5Zm.97-.25c.23.89.23,2.75.23,2.75,0,0,0,1.86-.23,2.75-.13.49-.5.88-.97,1.01-.85.24-3.8.24-3.8.24,0,0-2.95,0-3.8-.24-.47-.13-.84-.52-.97-1.01-.23-.89-.23-2.75-.23-2.75,0,0,0-1.86.23-2.75.13-.49.5-.88.97-1.01.86-.24,3.8-.24,3.8-.24,0,0,2.95,0,3.8.24.47.13.84.52.97,1.01Zm-5.77,4.5v-3.5l3,1.75-3,1.75Z"/>
</svg>