<?xml version="1.0" encoding="UTF-8"?>
<svg id="Layer_1" data-name="Layer 1" xmlns="http://www.w3.org/2000/svg" viewBox="0 0 10.97 10.21">
  <defs>
    <style>
      .cls-1 {
        fill: gray;
      }
    </style>
  </defs>
  <path class="cls-1" d="m5.33,3.86c.34,0,.6-.1.78-.29.14-.14.21-.37.21-.67v-1c0-.3-.07-.52-.21-.67-.19-.19-.44-.29-.78-.29s-.59.1-.78.29c-.14.14-.21.37-.21.67v1c0,.3.07.52.21.67.18.19.44.29.78.29Zm-.32-2.06c0-.26.1-.39.32-.39s.32.13.32.39v1.2c0,.26-.1.4-.32.4s-.32-.14-.32-.4v-1.2Zm1.92,1.85c-.04-.09-.06-.22-.06-.43V.97h.67v2.09c0,.12,0,.19,0,.2.01.08.07.12.16.12.13,0,.27-.08.42-.24V.97h.67v2.84h-.67v-.31c-.27.24-.52.35-.76.35-.21,0-.37-.07-.44-.21Zm2.56,3.45v.26h-.67v-.26c0-.26.11-.39.33-.39.22,0,.33.13.33.39ZM2.25,1.07c-.16-.35-.32-.71-.48-1.07h.79l.53,1.5.5-1.5h.76l-.9,2.27v1.54h-.74v-1.54c-.07-.28-.22-.68-.45-1.21Zm8.53,4.21c-.13-.44-.6-.77-1.18-.83-1.36-.11-2.74-.11-4.11-.11s-2.75,0-4.1.11c-.58.05-1.05.38-1.19.83-.18.64-.19,1.33-.19,1.99s0,1.36.19,1.99c.13.45.61.78,1.18.83,1.36.12,2.74.12,4.11.12s2.75,0,4.11-.12c.57-.05,1.04-.38,1.18-.83.18-.64.19-1.34.19-1.99,0-.66,0-1.36-.19-1.99Zm-7.65.58h-.79v3.24h-.74v-3.24h-.78v-.54h2.31v.54Zm2,3.24h-.66v-.31c-.27.23-.52.35-.76.35-.21,0-.37-.07-.43-.21-.04-.09-.06-.22-.06-.42v-2.23h.66v2.07c0,.12,0,.18,0,.2.02.08.07.12.16.12.13,0,.27-.08.42-.24v-2.15h.66s0,2.81,0,2.81Zm2.52-.84c0,.26-.02.45-.07.57-.08.21-.27.31-.53.31-.24,0-.47-.1-.69-.31v.27h-.66v-3.78h.66v1.24c.21-.21.44-.31.69-.31.26,0,.44.11.53.32.05.11.07.3.07.56v1.12Zm2.5-.47h-1.32v.5c0,.26.11.39.34.39.16,0,.26-.07.3-.2,0-.03.01-.14.01-.35h.67v.07c0,.17,0,.28-.01.33-.02.11-.07.22-.16.31-.18.2-.45.3-.8.3s-.61-.1-.8-.29c-.14-.14-.21-.36-.21-.66v-.99c0-.3.07-.52.21-.66.19-.19.45-.29.79-.29s.59.1.78.29c.13.14.2.36.2.66v.59h0Zm-3.16-.7v1.2c0,.26-.1.38-.29.38-.11,0-.22-.04-.33-.12v-1.71c.11-.09.22-.13.33-.13.19,0,.29.13.29.38Z"/>
</svg>