<?xml version="1.0" encoding="UTF-8"?>
<svg id="Layer_1" data-name="Layer 1" xmlns="http://www.w3.org/2000/svg" viewBox="0 0 11.42 12">
  <defs>
    <style>
      .cls-1 {
        fill: none;
      }

      .cls-2 {
        fill: gray;
      }
    </style>
  </defs>
  <path class="cls-1" d="m0,0h11.42v12H0V0Z"/>
  <path class="cls-2" d="m9.84,3.14c-.04-.17-.16-.3-.29-.34-.24-.07-1.4-.23-3.84-.23s-3.6.16-3.84.23c-.13.04-.25.17-.29.34-.06.24-.21,1.26-.21,2.86s.15,2.62.21,2.86c.04.17.16.3.29.34.24.07,1.4.23,3.84.23s3.6-.16,3.84-.23c.13-.04.25-.17.29-.34.06-.24.21-1.26.21-2.86s-.15-2.62-.21-2.86Zm1.05-.28c.25,1.02.25,3.14.25,3.14,0,0,0,2.12-.25,3.14-.14.56-.54,1.01-1.05,1.15-.93.27-4.13.27-4.13.27,0,0-3.2,0-4.13-.27-.51-.15-.92-.59-1.05-1.15-.25-1.02-.25-3.14-.25-3.14,0,0,0-2.12.25-3.14.14-.56.54-1.01,1.05-1.15.93-.27,4.13-.27,4.13-.27,0,0,3.2,0,4.13.27.51.15.92.59,1.05,1.15Zm-6.27,5.14v-4l3.26,2-3.26,2Z"/>
</svg>