<?xml version="1.0" encoding="UTF-8"?>
<svg id="Layer_1" data-name="Layer 1" xmlns="http://www.w3.org/2000/svg" viewBox="0 0 10.97 8.93">
  <defs>
    <style>
      .cls-1 {
        fill: gray;
      }
    </style>
  </defs>
  <path class="cls-1" d="m5.33,3.37c.34,0,.6-.08.78-.25.14-.12.21-.32.21-.59v-.87c0-.26-.07-.46-.21-.58-.19-.17-.44-.25-.78-.25s-.59.08-.78.25c-.14.12-.21.32-.21.58v.87c0,.26.07.46.21.59.18.17.44.25.78.25Zm-.32-1.8c0-.23.1-.34.32-.34s.32.11.32.34v1.05c0,.23-.1.35-.32.35s-.32-.12-.32-.35v-1.05Zm1.92,1.62c-.04-.08-.06-.19-.06-.37V.85h.67v1.83c0,.11,0,.16,0,.17.01.07.07.11.16.11.13,0,.27-.07.42-.21V.85h.67v2.49h-.67v-.27c-.27.21-.52.31-.76.31-.21,0-.37-.06-.44-.18Zm2.56,3.01v.23h-.67v-.23c0-.22.11-.34.33-.34.22,0,.33.12.33.34ZM2.25.93c-.16-.31-.32-.62-.48-.93h.79l.53,1.31.5-1.31h.76l-.9,1.99v1.35h-.74v-1.35c-.07-.24-.22-.59-.45-1.06Zm8.53,3.68c-.13-.39-.6-.68-1.18-.73-1.36-.1-2.74-.1-4.11-.1s-2.75,0-4.1.1c-.58.04-1.05.33-1.19.73-.18.56-.19,1.17-.19,1.74s0,1.19.19,1.74c.13.39.61.68,1.18.72,1.36.1,2.74.1,4.11.1s2.75,0,4.11-.1c.57-.04,1.04-.33,1.18-.72.18-.56.19-1.17.19-1.74,0-.58,0-1.19-.19-1.74Zm-7.65.5h-.79v2.83h-.74v-2.83h-.78v-.47h2.31v.47Zm2,2.83h-.66v-.27c-.27.2-.52.3-.76.3-.21,0-.37-.06-.43-.18-.04-.07-.06-.19-.06-.36v-1.95h.66v1.81c0,.11,0,.16,0,.17.02.07.07.1.16.1.13,0,.27-.07.42-.21v-1.88h.66s0,2.46,0,2.46Zm2.52-.74c0,.23-.02.39-.07.5-.08.18-.27.27-.53.27-.24,0-.47-.09-.69-.27v.24h-.66v-3.3h.66v1.08c.21-.18.44-.27.69-.27.26,0,.44.09.53.28.05.1.07.26.07.49v.98Zm2.5-.41h-1.32v.43c0,.23.11.34.34.34.16,0,.26-.06.3-.18,0-.02.01-.12.01-.3h.67v.07c0,.14,0,.24-.01.29-.02.1-.07.19-.16.27-.18.17-.45.26-.8.26s-.61-.08-.8-.25c-.14-.12-.21-.31-.21-.58v-.86c0-.26.07-.45.21-.58.19-.17.45-.25.79-.25s.59.08.78.25c.13.12.2.31.2.58v.51h0Zm-3.16-.61v1.05c0,.22-.1.33-.29.33-.11,0-.22-.03-.33-.11v-1.5c.11-.08.22-.11.33-.11.19,0,.29.11.29.33Z"/>
</svg>